<mxfile host="Electron" modified="2024-02-11T01:17:29.997Z" agent="Mozilla/5.0 (Windows NT 10.0; Win64; x64) AppleWebKit/537.36 (KHTML, like Gecko) draw.io/23.0.2 Chrome/120.0.6099.109 Electron/28.1.0 Safari/537.36" etag="o36l7kkv0sz4ukbIgfQ_" version="23.0.2" type="device">
  <diagram name="Page-1" id="ohXouznYAwaW9K6UpWiK">
    <mxGraphModel dx="1050" dy="621" grid="1" gridSize="10" guides="1" tooltips="1" connect="1" arrows="1" fold="1" page="1" pageScale="1" pageWidth="850" pageHeight="1100" math="0" shadow="0">
      <root>
        <mxCell id="0" />
        <mxCell id="1" parent="0" />
        <mxCell id="wQsaiqKBuqJ0LqFRwjuC-1" value="" style="strokeWidth=1;shadow=0;dashed=0;align=center;html=1;shape=mxgraph.mockup.containers.browserWindow;rSize=0;strokeColor=#666666;strokeColor2=#008cff;strokeColor3=#c4c4c4;mainText=,;recursiveResize=0;" vertex="1" parent="1">
          <mxGeometry x="30" y="100" width="920" height="740" as="geometry" />
        </mxCell>
        <mxCell id="wQsaiqKBuqJ0LqFRwjuC-2" value="index" style="strokeWidth=1;shadow=0;dashed=0;align=center;html=1;shape=mxgraph.mockup.containers.anchor;fontSize=17;fontColor=#666666;align=left;whiteSpace=wrap;" vertex="1" parent="wQsaiqKBuqJ0LqFRwjuC-1">
          <mxGeometry x="60" y="12" width="110" height="26" as="geometry" />
        </mxCell>
        <mxCell id="wQsaiqKBuqJ0LqFRwjuC-3" value="http://localhost:3000" style="strokeWidth=1;shadow=0;dashed=0;align=center;html=1;shape=mxgraph.mockup.containers.anchor;rSize=0;fontSize=17;fontColor=#666666;align=left;" vertex="1" parent="wQsaiqKBuqJ0LqFRwjuC-1">
          <mxGeometry x="130" y="60" width="250" height="26" as="geometry" />
        </mxCell>
        <mxCell id="wQsaiqKBuqJ0LqFRwjuC-4" value="" style="rounded=0;whiteSpace=wrap;html=1;" vertex="1" parent="wQsaiqKBuqJ0LqFRwjuC-1">
          <mxGeometry x="170" y="110" width="750" height="50" as="geometry" />
        </mxCell>
        <mxCell id="wQsaiqKBuqJ0LqFRwjuC-5" value="Connect" style="rounded=1;fillColor=none;strokeColor=default;html=1;whiteSpace=wrap;fontColor=#1A1A1A;align=center;verticalAlign=middle;fontStyle=1;fontSize=14;sketch=0;arcSize=0;" vertex="1" parent="wQsaiqKBuqJ0LqFRwjuC-1">
          <mxGeometry x="820" y="118.5" width="86" height="33" as="geometry" />
        </mxCell>
        <mxCell id="wQsaiqKBuqJ0LqFRwjuC-8" value="" style="whiteSpace=wrap;html=1;fontSize=15;" vertex="1" parent="wQsaiqKBuqJ0LqFRwjuC-1">
          <mxGeometry y="110" width="170" height="630" as="geometry" />
        </mxCell>
        <mxCell id="wQsaiqKBuqJ0LqFRwjuC-12" value="" style="dashed=0;outlineConnect=0;html=1;align=center;labelPosition=center;verticalLabelPosition=bottom;verticalAlign=top;shape=mxgraph.weblogos.two;fillColor=#FF6D00;strokeColor=none" vertex="1" parent="wQsaiqKBuqJ0LqFRwjuC-1">
          <mxGeometry x="47.3" y="132" width="75.4" height="20" as="geometry" />
        </mxCell>
        <mxCell id="wQsaiqKBuqJ0LqFRwjuC-45" value="" style="whiteSpace=wrap;html=1;" vertex="1" parent="wQsaiqKBuqJ0LqFRwjuC-1">
          <mxGeometry x="215" y="210" width="665" height="470" as="geometry" />
        </mxCell>
        <mxCell id="wQsaiqKBuqJ0LqFRwjuC-47" value="" style="rounded=0;whiteSpace=wrap;html=1;" vertex="1" parent="wQsaiqKBuqJ0LqFRwjuC-1">
          <mxGeometry x="215" y="210" width="665" height="50" as="geometry" />
        </mxCell>
        <mxCell id="wQsaiqKBuqJ0LqFRwjuC-46" value="Create Your Lock" style="text;html=1;strokeColor=none;fillColor=none;align=left;verticalAlign=middle;whiteSpace=wrap;rounded=0;fontSize=15;fontStyle=1" vertex="1" parent="wQsaiqKBuqJ0LqFRwjuC-1">
          <mxGeometry x="225" y="220" width="645" height="30" as="geometry" />
        </mxCell>
        <mxCell id="wQsaiqKBuqJ0LqFRwjuC-48" value="Token Address" style="fillColor=none;strokeColor=none;html=1;fontSize=11;fontStyle=0;align=left;fontColor=#596780;fontStyle=1;fontSize=11" vertex="1" parent="wQsaiqKBuqJ0LqFRwjuC-1">
          <mxGeometry x="232.5" y="289.5" width="627.5" height="20" as="geometry" />
        </mxCell>
        <mxCell id="wQsaiqKBuqJ0LqFRwjuC-49" value="Enter token address" style="rounded=0;arcSize=9;fillColor=#F7F8F9;align=left;spacingLeft=5;strokeColor=#DEE1E6;html=1;strokeWidth=2;fontColor=#596780;fontSize=12" vertex="1" parent="wQsaiqKBuqJ0LqFRwjuC-1">
          <mxGeometry x="232.5" y="313.5" width="630" height="33" as="geometry" />
        </mxCell>
        <mxCell id="wQsaiqKBuqJ0LqFRwjuC-51" value="Use another owner?" style="strokeWidth=1;shadow=0;dashed=0;align=center;html=1;shape=mxgraph.mockup.forms.rrect;rSize=0;fillColor=#eeeeee;strokeColor=#999999;gradientColor=none;align=left;spacingLeft=4;fontSize=13;fontColor=#666666;labelPosition=right;fontStyle=0" vertex="1" parent="wQsaiqKBuqJ0LqFRwjuC-1">
          <mxGeometry x="232.5" y="370" width="15" height="15" as="geometry" />
        </mxCell>
        <mxCell id="wQsaiqKBuqJ0LqFRwjuC-52" value="Title" style="fillColor=none;strokeColor=none;html=1;fontSize=11;fontStyle=0;align=left;fontColor=#596780;fontStyle=1;fontSize=11" vertex="1" parent="wQsaiqKBuqJ0LqFRwjuC-1">
          <mxGeometry x="232.5" y="404.5" width="627.5" height="20" as="geometry" />
        </mxCell>
        <mxCell id="wQsaiqKBuqJ0LqFRwjuC-53" value="Ex. My Lock" style="rounded=0;arcSize=9;fillColor=#F7F8F9;align=left;spacingLeft=5;strokeColor=#DEE1E6;html=1;strokeWidth=2;fontColor=#596780;fontSize=12" vertex="1" parent="wQsaiqKBuqJ0LqFRwjuC-1">
          <mxGeometry x="232.5" y="428.5" width="630" height="33" as="geometry" />
        </mxCell>
        <mxCell id="wQsaiqKBuqJ0LqFRwjuC-54" value="Amount" style="fillColor=none;strokeColor=none;html=1;fontSize=11;fontStyle=0;align=left;fontColor=#596780;fontStyle=1;fontSize=11" vertex="1" parent="wQsaiqKBuqJ0LqFRwjuC-1">
          <mxGeometry x="232.5" y="474.5" width="627.5" height="20" as="geometry" />
        </mxCell>
        <mxCell id="wQsaiqKBuqJ0LqFRwjuC-55" value="Enter amount" style="rounded=0;arcSize=9;fillColor=#F7F8F9;align=left;spacingLeft=5;strokeColor=#DEE1E6;html=1;strokeWidth=2;fontColor=#596780;fontSize=12" vertex="1" parent="wQsaiqKBuqJ0LqFRwjuC-1">
          <mxGeometry x="232.5" y="498.5" width="630" height="33" as="geometry" />
        </mxCell>
        <mxCell id="wQsaiqKBuqJ0LqFRwjuC-56" value="Enter amount" style="rounded=0;arcSize=9;fillColor=#F7F8F9;align=left;spacingLeft=5;strokeColor=#DEE1E6;html=1;strokeWidth=2;fontColor=#596780;fontSize=12" vertex="1" parent="wQsaiqKBuqJ0LqFRwjuC-1">
          <mxGeometry x="232.5" y="568.5" width="630" height="33" as="geometry" />
        </mxCell>
        <mxCell id="wQsaiqKBuqJ0LqFRwjuC-57" value="Lock until (UTC Time)" style="fillColor=none;strokeColor=none;html=1;fontSize=11;fontStyle=0;align=left;fontColor=#596780;fontStyle=1;fontSize=11" vertex="1" parent="wQsaiqKBuqJ0LqFRwjuC-1">
          <mxGeometry x="232.5" y="544.5" width="627.5" height="20" as="geometry" />
        </mxCell>
        <mxCell id="wQsaiqKBuqJ0LqFRwjuC-58" value="Lock" style="rounded=1;fillColor=none;strokeColor=default;html=1;whiteSpace=wrap;fontColor=#1A1A1A;align=center;verticalAlign=middle;fontStyle=1;fontSize=14;sketch=0;arcSize=0;" vertex="1" parent="wQsaiqKBuqJ0LqFRwjuC-1">
          <mxGeometry x="504.5" y="620" width="86" height="33" as="geometry" />
        </mxCell>
      </root>
    </mxGraphModel>
  </diagram>
</mxfile>
